#tb 0: 32767/982027
#media_type 0: video
#codec_id 0: rawvideo
#dimensions 0: 112x112
#sar 0: 0/1
0,          0,          0,        1,    18816, 0xc3fe9fc7
0,          1,          1,        1,    18816, 0xab429744
0,          2,          2,        1,    18816, 0x1eec8b7d
0,          3,          3,        1,    18816, 0x3817859f
0,          4,          4,        1,    18816, 0x8f487c41
0,          5,          5,        1,    18816, 0x4ce87138
0,          6,          6,        1,    18816, 0x499361dd
0,          7,          7,        1,    18816, 0xd26c5518
0,          8,          8,        1,    18816, 0xfb1a4b88
0,          9,          9,        1,    18816, 0x4ac63ac7
0,         10,         10,        1,    18816, 0x39642fad
0,         11,         11,        1,    18816, 0x4dd219f6
0,         12,         12,        1,    18816, 0x6c500df7
0,         13,         13,        1,    18816, 0x700e00b4
0,         14,         14,        1,    18816, 0xbebaf7e0
0,         15,         15,        1,    18816, 0x22c1ebf6
0,         16,         16,        1,    18816, 0x723fe229
0,         17,         17,        1,    18816, 0x9b22cd91
0,         18,         18,        1,    18816, 0x45ddc17a
0,         19,         19,        1,    18816, 0x9b33af88
0,         20,         20,        1,    18816, 0xf9d1a70d
0,         21,         21,        1,    18816, 0x9bfd9d84
0,         22,         22,        1,    18816, 0x27048da1
0,         23,         23,        1,    18816, 0x0e497b2d
0,         24,         24,        1,    18816, 0x508264fd
0,         25,         25,        1,    18816, 0xf6985495
0,         26,         26,        1,    18816, 0xa5014869
0,         27,         27,        1,    18816, 0x426e3de4
0,         28,         28,        1,    18816, 0xd72129b9
0,         29,         29,        1,    18816, 0x12e51e1c
0,         30,         30,        1,    18816, 0x754109eb
0,         31,         31,        1,    18816, 0x2fb5039e
0,         32,         32,        1,    18816, 0x9407fdea
0,         33,         33,        1,    18816, 0x59f2f752
0,         34,         34,        1,    18816, 0xb448e831
0,         35,         35,        1,    18816, 0xf31fdb2e
0,         36,         36,        1,    18816, 0x6bedcdec
0,         37,         37,        1,    18816, 0xbbfec8e6
0,         38,         38,        1,    18816, 0x104ac345
0,         39,         39,        1,    18816, 0xd387b629
0,         40,         40,        1,    18816, 0x4187a9e7
0,         41,         41,        1,    18816, 0x1c649c17
0,         42,         42,        1,    18816, 0xcc869431
0,         43,         43,        1,    18816, 0x8bc78ed1
0,         44,         44,        1,    18816, 0x34de8a5f
0,         45,         45,        1,    18816, 0x42727bd0
0,         46,         46,        1,    18816, 0x6e9c7192
0,         47,         47,        1,    18816, 0xd93761c1
0,         48,         48,        1,    18816, 0x69455f50
0,         49,         49,        1,    18816, 0xa35d5b8b
0,         50,         50,        1,    18816, 0xe6635469
0,         51,         51,        1,    18816, 0x285d47f9
0,         52,         52,        1,    18816, 0xdb0a3fdf
0,         53,         53,        1,    18816, 0x608336d0
0,         54,         54,        1,    18816, 0x39e9353f
0,         55,         55,        1,    18816, 0xad2034bd
0,         56,         56,        1,    18816, 0xa0f527e7
0,         57,         57,        1,    18816, 0x5ed71ef1
0,         58,         58,        1,    18816, 0xd2df1798
0,         59,         59,        1,    18816, 0x932513d3
0,         60,         60,        1,    18816, 0xab600f1b
0,         61,         61,        1,    18816, 0x665d087e
0,         62,         62,        1,    18816, 0x8d71f765
0,         63,         63,        1,    18816, 0xfc80f2ae
0,         64,         64,        1,    18816, 0x885bee81
0,         65,         65,        1,    18816, 0x6c4feec9
0,         66,         66,        1,    18816, 0x5010f017
0,         67,         67,        1,    18816, 0x63d5e683
0,         68,         68,        1,    18816, 0x216ddab5
0,         69,         69,        1,    18816, 0xb758d8c2
0,         70,         70,        1,    18816, 0xeae4d7e5
0,         71,         71,        1,    18816, 0x2553d137
0,         72,         72,        1,    18816, 0xced6cb97
0,         73,         73,        1,    18816, 0xd332c103
0,         74,         74,        1,    18816, 0xe84bbc67
0,         75,         75,        1,    18816, 0x21f7b90d
0,         76,         76,        1,    18816, 0xbd88b648
0,         77,         77,        1,    18816, 0xe7b8af59
0,         78,         78,        1,    18816, 0x30f5ad3d
0,         79,         79,        1,    18816, 0x79bfa7bb
0,         80,         80,        1,    18816, 0xd5919e34
0,         81,         81,        1,    18816, 0x43758fda
0,         82,         82,        1,    18816, 0x93ff8fcc
0,         83,         83,        1,    18816, 0xa444913f
0,         84,         84,        1,    18816, 0xc41d878b
0,         85,         85,        1,    18816, 0x526d7f09
0,         86,         86,        1,    18816, 0x40307528
0,         87,         87,        1,    18816, 0xf63d725c
0,         88,         88,        1,    18816, 0x45587ddb
0,         89,         89,        1,    18816, 0x37018069
0,         90,         90,        1,    18816, 0x69567572
0,         91,         91,        1,    18816, 0xa8086d54
0,         92,         92,        1,    18816, 0x2ab65ccc
0,         93,         93,        1,    18816, 0xa5475c5d
0,         94,         94,        1,    18816, 0x87dc60e2
0,         95,         95,        1,    18816, 0x54295b5d
0,         96,         96,        1,    18816, 0xce424fe9
0,         97,         97,        1,    18816, 0x99e0506d
0,         98,         98,        1,    18816, 0x6ac55324
0,         99,         99,        1,    18816, 0xa60f4c1a
0,        100,        100,        1,    18816, 0x7eba456e
0,        101,        101,        1,    18816, 0xab703a88
0,        102,        102,        1,    18816, 0xb8263539
0,        103,        103,        1,    18816, 0x829e2abb
0,        104,        104,        1,    18816, 0x2e9f2736
0,        105,        105,        1,    18816, 0x7a3d2885
0,        106,        106,        1,    18816, 0x8023274f
0,        107,        107,        1,    18816, 0x39bf2196
0,        108,        108,        1,    18816, 0x21cf1bcb
0,        109,        109,        1,    18816, 0x016911b9
0,        110,        110,        1,    18816, 0x2a791237
0,        111,        111,        1,    18816, 0x093f16a7
0,        112,        112,        1,    18816, 0x07a90df3
0,        113,        113,        1,    18816, 0x8de800ca
0,        114,        114,        1,    18816, 0xe379fe68
0,        115,        115,        1,    18816, 0x267afd69
0,        116,        116,        1,    18816, 0x5b29fac1
0,        117,        117,        1,    18816, 0x3606f6b6
0,        118,        118,        1,    18816, 0xcbdce61e
0,        119,        119,        1,    18816, 0x28ffe113
